<svg xmlns="http://www.w3.org/2000/svg" width="14" height="16" fill="none"><mask id="a" fill="#fff"><path fill-rule="evenodd" d="M8.647 14.4c0 .88-.741 1.6-1.647 1.6s-1.647-.72-1.647-1.6h3.294ZM7 3.512l-.787.181C4.698 4.042 3.647 5.336 3.647 6.8V11.6h8.317l.389-.4.412.4L14 12.8v.8H0v-.8l1.235-1.2.412-.4V6.8c0-2.456 1.754-4.512 4.118-5.056V1.2C5.765.536 6.316 0 7 0s1.235.536 1.235 1.2v.544c2.364.544 4.118 2.6 4.118 5.056v4.4h-2V6.8c0-1.464-1.05-2.758-2.566-3.107L7 3.512Z" clip-rule="evenodd"/></mask><path fill="#3E4056" d="M8.647 14.4h2v-2h-2v2Zm-3.294 0v-2h-2v2h2Zm.86-10.707.449 1.95-.449-1.95ZM7 3.512l.449-1.95L7 1.46l-.449.103L7 3.512ZM3.647 11.6h-2v2h2v-2Zm8.317 0v2h.846l.589-.606-1.435-1.394Zm.8 0-1.393 1.435 1.394-1.435ZM14 12.8h2v-.846l-.606-.589L14 12.8Zm0 .8v2h2v-2h-2Zm-14 0h-2v2h2v-2Zm0-.8-1.394-1.435-.606.59v.845h2Zm1.235-1.2-1.393-1.435L1.235 11.6Zm.412-.4 1.394 1.435.606-.59V11.2h-2Zm4.118-9.456.448 1.949 1.552-.357V1.744h-2Zm2.47 0h-2v1.592l1.552.357.448-1.949Zm2.118 9.456h-2v2h2v-2ZM7.787 3.693l-.449 1.95.449-1.95ZM7 18c1.955 0 3.647-1.561 3.647-3.6h-4c0-.279.21-.4.353-.4v4Zm-3.647-3.6C3.353 16.439 5.045 18 7 18v-4c.144 0 .353.121.353.4h-4Zm3.294-2H5.353v4h1.294v-4Zm.353 0h-.353v4H7v-4Zm.353 0H7v4h.353v-4Zm1.294 0H7.353v4h1.294v-4ZM6.662 5.642l.787-.181-.898-3.898-.786.181.897 3.898ZM5.647 6.8c0-.48.355-1.006 1.015-1.158l-.897-3.898C3.394 2.29 1.647 4.352 1.647 6.8h4Zm0 4.4V6.8h-4v4.4h4Zm0 .4v-.4h-4v.4h4Zm6.317-2H3.647v4h8.317v-4Zm-1.046.206-.388.4 2.869 2.788.389-.4-2.87-2.788Zm3.24.36-.412-.4-2.787 2.869.412.4 2.787-2.87Zm1.236 1.2-1.236-1.2-2.787 2.869 1.235 1.2 2.788-2.87ZM16 13.6v-.8h-4v.8h4Zm-2.777 2H14v-4h-.777v4ZM12 15.6h1.223v-4H12v4Zm-.047 0H12v-4h-.047v4Zm-9.906 0h9.906v-4H2.047v4ZM2 15.6h.047v-4H2v4Zm-1.223 0H2v-4H.777v4ZM0 15.6h.777v-4H0v4Zm-2-2.8v.8h4v-.8h-4Zm1.842-2.635-1.236 1.2 2.788 2.87 1.235-1.2-2.787-2.87Zm.411-.4-.411.4 2.787 2.87.412-.4-2.788-2.87ZM-.353 6.8v4.4h4V6.8h-4Zm5.67-7.005C2.104.535-.354 3.352-.354 6.8h4c0-1.464 1.05-2.758 2.566-3.107L5.316-.205ZM3.764 1.2v.544h4V1.2h-4ZM7-2C5.267-2 3.765-.623 3.765 1.2h4c0 .495-.399.8-.765.8v-4Zm3.235 3.2C10.235-.623 8.733-2 7-2v4a.784.784 0 0 1-.765-.8h4Zm0 .544V1.2h-4v.544h4ZM14.353 6.8c0-3.448-2.458-6.266-5.67-7.005l-.896 3.898c1.515.349 2.566 1.643 2.566 3.107h4Zm0 4.4V6.8h-4v4.4h4Zm-4 2h2v-4h-2v4Zm-2-6.4v4.4h4V6.8h-4ZM7.338 5.642c.66.152 1.015.678 1.015 1.158h4c0-2.448-1.746-4.51-4.118-5.056l-.897 3.898Zm-.787-.181.787.181.897-3.898-.786-.181L6.55 5.46Z" mask="url(#a)"/></svg>