<svg width="25" height="20" viewBox="0 0 25 20" fill="none" xmlns="http://www.w3.org/2000/svg">
<path d="M16.6246 6.31666L11.133 11.8083L8.14131 8.82499L6.96631 9.99999L11.133 14.1667L17.7996 7.49999L16.6246 6.31666ZM12.7996 1.66666C8.19964 1.66666 4.46631 5.39999 4.46631 9.99999C4.46631 14.6 8.19964 18.3333 12.7996 18.3333C17.3996 18.3333 21.133 14.6 21.133 9.99999C21.133 5.39999 17.3996 1.66666 12.7996 1.66666ZM12.7996 16.6667C9.11631 16.6667 6.13298 13.6833 6.13298 9.99999C6.13298 6.31666 9.11631 3.33332 12.7996 3.33332C16.483 3.33332 19.4663 6.31666 19.4663 9.99999C19.4663 13.6833 16.483 16.6667 12.7996 16.6667Z" fill="#4CAF50"/>
</svg>
