<svg width="24" height="20" viewBox="0 0 24 20" fill="none" xmlns="http://www.w3.org/2000/svg">
<path d="M11.9998 1.66666C7.4165 1.66666 3.6665 5.41666 3.6665 9.99999C3.6665 14.5833 7.4165 18.3333 11.9998 18.3333C16.5832 18.3333 20.3332 14.5833 20.3332 9.99999C20.3332 5.41666 16.5832 1.66666 11.9998 1.66666ZM5.33317 9.99999C5.33317 6.33332 8.33317 3.33332 11.9998 3.33332C13.4998 3.33332 14.9165 3.83332 16.0832 4.74999L6.74984 14.0833C5.83317 12.9167 5.33317 11.5 5.33317 9.99999ZM11.9998 16.6667C10.4998 16.6667 9.08317 16.1667 7.9165 15.25L17.2498 5.91666C18.1665 7.08332 18.6665 8.49999 18.6665 9.99999C18.6665 13.6667 15.6665 16.6667 11.9998 16.6667Z" fill="#EF5350"/>
</svg>
