<svg width="22" height="22" viewBox="0 0 22 22" fill="none" xmlns="http://www.w3.org/2000/svg">
<path fill-rule="evenodd" clip-rule="evenodd" d="M16.2398 13C15.6145 13.3237 14.7716 13.809 14.0253 14.3855C13.1473 15.0637 12.6011 16.7189 12.4701 17.2425C12.3893 17.566 12.3252 17.8754 12.2586 18.1975C12.2261 18.3544 12.193 18.5146 12.157 18.6805C12.0539 19.1563 11.9292 19.6699 11.7356 20.1346C11.5396 20.6049 11.2469 21.0909 10.7675 21.4537C10.2744 21.8268 9.67643 22 9 22C7.9238 22 7.08762 21.5285 6.54916 20.7627C6.04609 20.0472 5.84897 19.146 5.81337 18.2916C5.76982 17.2466 6.132 15.0186 6.5 14C6.4155 14.0042 6.33395 14.0023 6.2503 14.0004C6.17027 13.9985 6.08832 13.9966 6 14C5.37837 14.0237 4.85184 14.0121 4.27508 13.9995C4.07618 13.9951 3.87131 13.9907 3.65451 13.9874C2.68662 13.9731 1.85516 13.5493 1.14203 12.8911C0.394584 12.2011 9.4169e-07 11.2283 1.04907e-06 10C1.23267e-06 7.89995 0.390081 5.48377 1.35557 3.55278C2.32959 1.60476 3.986 -1.57483e-06 6.5 -1.35505e-06L19 -2.62268e-07C20.6569 -1.17422e-07 22 1.34315 22 3L22 10C22 11.6569 20.6569 13 19 13L16.2398 13ZM10.2897 17.8414C10.2593 17.988 10.2304 18.1278 10.2024 18.257C10.1023 18.7187 10.0083 19.0801 9.88942 19.3654C9.77289 19.6451 9.65939 19.7841 9.56062 19.8588C9.47563 19.9232 9.32357 20 9 20C8.5762 20 8.34988 19.8465 8.18522 19.6123C7.98516 19.3278 7.83853 18.854 7.81163 18.2084C7.7571 16.8995 8.21026 14.3863 8.8 13.6L10 12L8 12C7.87261 12 7.72777 11.9974 7.5735 11.9946C7.23279 11.9885 6.84612 11.9816 6.5 12C6.34846 12.008 6.29377 12.0048 6.23649 12.0014C6.18453 11.9983 6.13043 11.995 6 12C5.51913 12.0183 5.07728 12.0147 4.68653 12.0116C4.42346 12.0094 4.18355 12.0075 3.97049 12.0126C3.18911 12.0311 2.80109 11.7007 2.49859 11.4214C2.23042 11.1739 2 10.7717 2 10C2 8.10005 2.35992 6.01623 3.14443 4.44721C3.92042 2.89524 5.014 2 6.5 2L15 2L15 11.3935C14.3511 11.7449 13.5466 12.2281 12.8027 12.8028C11.8732 13.5207 10.8362 15.5322 10.5299 16.7575C10.439 17.1208 10.3606 17.4993 10.2897 17.8414ZM17 11L19 11C19.5523 11 20 10.5523 20 10L20 3C20 2.44772 19.5523 2 19 2L17 2L17 11Z" fill="#6F7071"/>
</svg>
