<svg width="22" height="22" viewBox="0 0 22 22" fill="none" xmlns="http://www.w3.org/2000/svg">
<path fill-rule="evenodd" clip-rule="evenodd" d="M5.76024 9C6.38554 8.6763 7.22842 8.19095 7.97473 7.61447C8.85268 6.93629 9.39894 5.28112 9.52986 4.75746C9.61071 4.43404 9.67476 4.12456 9.74142 3.80249C9.77388 3.64563 9.80704 3.4854 9.84299 3.3195C9.94608 2.84368 10.0708 2.33009 10.2644 1.86538C10.4604 1.39505 10.7531 0.909101 11.2325 0.546344C11.7256 0.173162 12.3236 0 13 0C14.0762 0 14.9124 0.471508 15.4508 1.23732C15.9539 1.9528 16.151 2.85396 16.1866 3.70837C16.2302 4.75344 15.868 6.98136 15.5 8C15.5845 7.99578 15.666 7.99767 15.7497 7.99961C15.8297 8.00146 15.9117 8.00336 16 8C16.6216 7.97632 17.1482 7.98785 17.7249 8.00049C17.9238 8.00485 18.1287 8.00934 18.3455 8.01256C19.3134 8.02694 20.1448 8.45067 20.858 9.10895C21.6054 9.7989 22 10.7717 22 12C22 14.1001 21.6099 16.5162 20.6444 18.4472C19.6704 20.3952 18.014 22 15.5 22H3C1.34315 22 0 20.6569 0 19V12C0 10.3431 1.34315 9 3 9H5.76024ZM11.7103 4.15855C11.7407 4.01203 11.7696 3.87217 11.7976 3.743C11.8977 3.28132 11.9917 2.91991 12.1106 2.63462C12.2271 2.35495 12.3406 2.2159 12.4394 2.14116C12.5244 2.07684 12.6764 2 13 2C13.4238 2 13.6501 2.15349 13.8148 2.38768C14.0148 2.6722 14.1615 3.14604 14.1884 3.79163C14.2429 5.10046 13.7897 7.61368 13.2 8.4L12 10H14C14.1274 10 14.2722 10.0026 14.4265 10.0054C14.7672 10.0115 15.1539 10.0184 15.5 10C15.6515 9.99195 15.7062 9.99522 15.7635 9.99864C15.8155 10.0017 15.8696 10.005 16 10C16.4809 9.98168 16.9227 9.98526 17.3135 9.98842C17.5765 9.99055 17.8165 9.99249 18.0295 9.98744C18.8109 9.96891 19.1989 10.2993 19.5014 10.5786C19.7696 10.8261 20 11.2283 20 12C20 13.8999 19.6401 15.9838 18.8556 17.5528C18.0796 19.1048 16.986 20 15.5 20H7V10.6065C7.64892 10.2551 8.45338 9.77192 9.19735 9.19725C10.1268 8.47932 11.1638 6.46782 11.4701 5.24254C11.561 4.8792 11.6394 4.50071 11.7103 4.15855ZM5 11H3C2.44772 11 2 11.4477 2 12V19C2 19.5523 2.44772 20 3 20H5V11Z" fill="#6F7071"/>
</svg>
